# xmcd
#
# Track frame offsets:
#	150
#	20512
#	41183
#
# Disc length: 737 seconds
#
# Revision: 1
# Processed by: cddbd v1.5.2PL0 Copyright (c) Steve Scherf et al.
# Submitted via: EasyCDDAExtractor 11.1.0.1
#
DISCID=2002df03
DTITLE=Emmylou Harris - promo
DYEAR=1900
DGENRE=country
TTITLE0=Where will I be
TTITLE1=Tulsa queen
TTITLE2=Love hurts
EXTD=
EXTT0=
EXTT1=
EXTT2=
PLAYORDER=
